<?xml version="1.0" encoding="utf-8"?>
<!-- Generator: Adobe Illustrator 22.0.0, SVG Export Plug-In . SVG Version: 6.00 Build 0)  -->
<svg version="1.1" id="图层_1" xmlns="http://www.w3.org/2000/svg" xmlns:xlink="http://www.w3.org/1999/xlink" x="0px" y="0px"
	 viewBox="0 0 256 256" style="enable-background:new 0 0 256 256;" xml:space="preserve">
<style type="text/css">
	.st0{fill:#00C96C;}
</style>
<path class="st0" d="M73.4,116h118.4c11.1,0,15.4,26.5,15.4,56c0.1,29.5-11.1,56-19.9,56h-27c-1,0-1.7-1-1.4-2
	c1.3-3.3,3.4-9.9,2.5-15.8c-1.3-8.1-4.1-14.7-4.1-14.7s2.1,6-6.4,17.2c-7.8,10.3-14.7,13.9-17,14.9c-0.5,0.2-1,0.3-1.5,0.3H46
	c-6.1,0-11-5.1-10.8-11.2c0.1-1.9,0.7-3.7,1.6-5.3L49,191.1c8.9-14.8,13.5-31.7,13.5-48.9v-15.6C62.6,120.8,67.4,116,73.4,116z
	 M126.8,76.4V38.8c0-6,4.8-10.8,10.8-10.8s10.8,4.8,10.8,10.8v37.7h40.2c5.9,0,10.8,4.8,10.8,10.8V98c0,5.9-4.8,10.8-10.8,10.8H80.9
	c-5.9,0-10.8-4.8-10.8-10.8V87.2c0-5.9,4.8-10.8,10.8-10.8C80.9,76.4,126.8,76.4,126.8,76.4z"/>
</svg>
