<?xml version="1.0" encoding="utf-8"?>
<!-- Generator: Adobe Illustrator 22.0.0, SVG Export Plug-In . SVG Version: 6.00 Build 0)  -->
<svg version="1.1" id="图层_1" xmlns="http://www.w3.org/2000/svg" xmlns:xlink="http://www.w3.org/1999/xlink" x="0px" y="0px"
	 viewBox="0 0 256 256" style="enable-background:new 0 0 256 256;" xml:space="preserve">
<style type="text/css">
	.st0{fill:#FF9100;}
</style>
<path class="st0" d="M222.3,146.3c2.1,1.7,4.7,6,4.4,13.1c0.1,4.9-1.3,10.2-4.2,15.6l-1.4,2.5c-1.3,2.5-3,5.2-4.9,8.1
	c-2,2.9-4.1,5.8-6.3,8.5c-5,7.3-10.5,14.2-16.4,20.7l-1.5,1.8c-3,3.6-6.2,6.4-9.4,8.7l-2.3,1.5c-4.5,3.2-8.6,5-12.4,5.5l-1.4,0.1
	l-0.1,0l-0.9,0l-63.4,0l-0.1,0l-0.7,0l-2.4-0.3c-6.8-1.9-13.6-3.9-20.4-6l-7.4-2.5H29.2v-69.2H71l1.4-0.1l3.1-0.4l2-0.3l3.6-0.6
	l3.9-0.8l2.6-0.4l4.6-0.3l4.3,0l1.9,0.1c3.2,0.3,6.6,1.3,10.6,3.2l2.4,1.3l2.9,1.7l6,3.9l8,3l27,0l1.9,0.1c2.4,0.2,4.3,0.9,5.6,1.8
	l0.9,0.7l1,1.1l0.2,0.3l9.8,12.8l16.7-20.4l2.4-2.2l3-2.6l1.6-1.3l3-2.4c0.5-0.3,0.9-0.7,1.3-0.9l1.5-0.9l2.4-1.7l2.3-1.4
	C213,145.3,218.5,143.1,222.3,146.3L222.3,146.3z M194.7,23.5c3.6,0,6.5,3.1,6.5,6.9v107.7l-2.8,1.2c-4.7,2.4-9.3,5.7-14,10.1
	l-2.8,2.7l-6.5,7.9l-1-1.4l-1.5-1.6c-3.6-3.5-8.6-5.6-14.6-6.1l-2.6-0.1l-27,0l-0.2-0.2l-0.9-0.6l-6.7-4.4l-3.2-1.8
	c-6.2-3.4-12-5.5-18-6l-3.1-0.1l-4.8,0.1l-4,0.2l-1.7,0.2l-3.2,0.5l-3.7,0.7l-3.2,0.6l-1.8,0.2l-2.9,0.4l-26.4,0V30.4
	c0-3.8,2.9-6.9,6.5-6.9H194.7L194.7,23.5z M97.7,92.7h-13c-1.5,0-2.8,1.1-3.2,2.7l-0.1,0.8V110c0,1.6,1,3,2.5,3.4l0.7,0.1h13
	c1.5,0,2.8-1.1,3.2-2.7l0.1-0.8V96.2C101,94.2,99.5,92.7,97.7,92.7z M156.4,92.7h-45.7c-1.5,0-2.8,1.1-3.2,2.7l-0.1,0.8V110
	c0,1.6,1,3,2.5,3.4l0.7,0.1h45.7c1.5,0,2.8-1.1,3.2-2.7l0.1-0.8V96.2C159.7,94.2,158.3,92.7,156.4,92.7z M97.7,65h-13
	c-1.5,0-2.8,1.1-3.2,2.7l-0.1,0.8v13.8c0,1.6,1,3,2.5,3.4l0.7,0.1h13c1.5,0,2.8-1.1,3.2-2.7l0.1-0.8V68.5C101,66.6,99.5,65,97.7,65z
	 M156.4,65h-45.7c-1.5,0-2.8,1.1-3.2,2.7l-0.1,0.8v13.8c0,1.6,1,3,2.5,3.4l0.7,0.1h45.7c1.5,0,2.8-1.1,3.2-2.7l0.1-0.8V68.5
	C159.7,66.6,158.3,65,156.4,65z"/>
</svg>
