<?xml version="1.0" encoding="utf-8"?>
<!-- Generator: Adobe Illustrator 22.0.0, SVG Export Plug-In . SVG Version: 6.00 Build 0)  -->
<svg version="1.1" id="图层_1" xmlns="http://www.w3.org/2000/svg" xmlns:xlink="http://www.w3.org/1999/xlink" x="0px" y="0px"
	 viewBox="0 0 256 256" style="enable-background:new 0 0 256 256;" xml:space="preserve">
<style type="text/css">
	.st0{fill:#FF9100;}
</style>
<g>
	<path class="st0" d="M38.2,211.3c0,0-2.5-1.8-7.6-5.4c-5-3.6-8.9-8.9-11.6-15.8c-2.7-6.9-4-15.3-4-25.1v-58c0-9.8,1.3-18.2,4-25.1
		c2.7-6.9,6.5-12.2,11.6-15.8c5-3.6,11.1-5.4,18.2-5.4c7,0,12.9,1.8,17.7,5.5s8.5,9.2,11.1,16.6c2.6,7.4,4.2,16.8,4.7,28.2H61.8
		c-0.3-5.3-1-9.8-2-13.3c-1.1-3.5-2.5-6.1-4.3-7.8c-1.8-1.7-4-2.5-6.5-2.5c-2.7,0-5.1,0.8-7,2.3c-2,1.5-3.5,3.8-4.5,6.8
		c-1.1,3-1.6,6.5-1.6,10.7v58c0,4.2,0.5,7.8,1.6,10.7c1.1,2.9,2.6,5.1,4.5,6.7c2,1.5,4.3,2.3,7,2.3c2.6,0,4.8-0.8,6.6-2.5
		c1.8-1.7,3.2-4.3,4.3-7.8c1.1-3.5,1.7-7.9,2-13.3h20.7c-0.6,11.4-2.2,20.8-4.8,28.2c-2.6,7.4-6.4,12.9-11.1,16.6
		c-4.8,3.7-10.6,5.5-17.6,5.5C41.8,211.3,38.2,211.3,38.2,211.3z"/>
	<path class="st0" d="M95.5,62h19.9v147.8H95.5V62z M103.9,123.4h29.5c1.9,0,3.6-0.6,5-1.7s2.5-2.7,3.3-4.7c0.7-2,1.1-4.4,1.1-7.1
		v-8.3c0-2.8-0.4-5.3-1.1-7.5c-0.7-2.1-1.8-3.8-3.2-4.9c-1.4-1.1-3.1-1.7-5.1-1.7h-29.5V62h29.8c6.1,0,11.4,1.6,15.9,4.7
		c4.5,3.1,8,7.6,10.4,13.5c2.4,5.9,3.6,12.7,3.6,20.7v8.6c0,8.1-1.2,15-3.6,21c-2.4,5.9-5.9,10.5-10.4,13.7
		c-4.5,3.2-9.8,4.8-15.9,4.8h-29.8V123.4z M123.5,144.3l20.1-4.7l24,70.2h-23L123.5,144.3z"/>
	<path class="st0" d="M200.2,211.3c0,0-2.5-1.8-7.6-5.4c-5-3.6-8.9-8.9-11.6-15.8c-2.7-6.9-4-15.3-4-25.1v-58c0-9.8,1.3-18.2,4-25.1
		c2.7-6.9,6.5-12.2,11.6-15.8c5-3.6,11.1-5.4,18.2-5.4c7,0,12.9,1.8,17.7,5.5s8.5,9.2,11.1,16.6c2.6,7.4,4.2,16.8,4.7,28.2h-20.7
		c-0.3-5.3-1-9.8-2-13.3c-1.1-3.5-2.5-6.1-4.3-7.8c-1.8-1.7-4-2.5-6.5-2.5c-2.7,0-5.1,0.8-7,2.3c-2,1.5-3.5,3.8-4.5,6.8
		c-1.1,3-1.6,6.5-1.6,10.7v58c0,4.2,0.5,7.8,1.6,10.7c1.1,2.9,2.6,5.1,4.5,6.7c2,1.5,4.3,2.3,7,2.3c2.6,0,4.8-0.8,6.6-2.5
		c1.8-1.7,3.2-4.3,4.3-7.8c1.1-3.5,1.7-7.9,2-13.3h20.7c-0.6,11.4-2.2,20.8-4.8,28.2c-2.6,7.4-6.4,12.9-11.1,16.6
		c-4.8,3.7-10.6,5.5-17.6,5.5C203.7,211.3,200.2,211.3,200.2,211.3z"/>
</g>
<g>
</g>
<g>
</g>
<g>
</g>
<g>
</g>
<g>
</g>
<g>
</g>
<g>
</g>
<g>
</g>
<g>
</g>
<g>
</g>
<g>
</g>
<g>
</g>
<g>
</g>
<g>
</g>
<g>
</g>
</svg>
