<?xml version="1.0" encoding="utf-8"?>
<!-- Generator: Adobe Illustrator 22.0.0, SVG Export Plug-In . SVG Version: 6.00 Build 0)  -->
<svg version="1.1" id="图层_1" xmlns="http://www.w3.org/2000/svg" xmlns:xlink="http://www.w3.org/1999/xlink" x="0px" y="0px"
	 viewBox="0 0 256 256" style="enable-background:new 0 0 256 256;" xml:space="preserve">
<style type="text/css">
	.st0{fill:#2A90FF;}
</style>
<path class="st0" d="M79.2,32.7H57.8c-7.3,0-13.3,4.9-13.3,11v168.6c0,6.1,6,11,13.3,11h21.4c7.3,0,13.3-4.9,13.3-11V43.7
	C92.5,37.6,86.5,32.7,79.2,32.7z M198.2,32.7h-21.4c-7.3,0-13.3,4.9-13.3,11v168.6c0,6.1,6,11,13.3,11h21.4c7.3,0,13.3-4.9,13.3-11
	V43.7C211.5,37.6,205.6,32.7,198.2,32.7z"/>
</svg>
